<mxfile host="app.diagrams.net" modified="2023-07-31T11:07:11.862Z" agent="Mozilla/5.0 (Windows NT 10.0; Win64; x64; rv:109.0) Gecko/20100101 Firefox/115.0" etag="IBNt8FO5pMA8gd_7IftC" version="21.6.6" type="device">
  <diagram name="Page-1" id="WtQnVqhu8mTQTKtZIbin">
    <mxGraphModel dx="1050" dy="1630" grid="1" gridSize="10" guides="1" tooltips="1" connect="1" arrows="1" fold="1" page="1" pageScale="1" pageWidth="850" pageHeight="1100" math="0" shadow="0">
      <root>
        <mxCell id="0" />
        <mxCell id="1" parent="0" />
        <mxCell id="QDNz4V-fMhcEGWnAVEFi-2" value="" style="edgeStyle=orthogonalEdgeStyle;rounded=0;orthogonalLoop=1;jettySize=auto;html=1;" parent="1" source="Lcnpm1QoUVM13QVadRcU-1" target="Lcnpm1QoUVM13QVadRcU-4" edge="1">
          <mxGeometry relative="1" as="geometry" />
        </mxCell>
        <mxCell id="Lcnpm1QoUVM13QVadRcU-1" value="GROUPING OF CELLS" style="rounded=1;whiteSpace=wrap;html=1;" parent="1" vertex="1">
          <mxGeometry x="160" y="30" width="120" height="60" as="geometry" />
        </mxCell>
        <mxCell id="nFdZa_fs1xXAZgaMB1YP-8" value="" style="edgeStyle=orthogonalEdgeStyle;rounded=0;orthogonalLoop=1;jettySize=auto;html=1;" edge="1" parent="1" source="Lcnpm1QoUVM13QVadRcU-2" target="Lcnpm1QoUVM13QVadRcU-1">
          <mxGeometry relative="1" as="geometry" />
        </mxCell>
        <mxCell id="Lcnpm1QoUVM13QVadRcU-2" value="GRID GENERATION" style="rounded=1;whiteSpace=wrap;html=1;labelBackgroundColor=none;" parent="1" vertex="1">
          <mxGeometry x="70" y="-70" width="120" height="60" as="geometry" />
        </mxCell>
        <mxCell id="Lcnpm1QoUVM13QVadRcU-15" value="" style="edgeStyle=orthogonalEdgeStyle;rounded=0;orthogonalLoop=1;jettySize=auto;html=1;" parent="1" source="Lcnpm1QoUVM13QVadRcU-4" target="Lcnpm1QoUVM13QVadRcU-14" edge="1">
          <mxGeometry relative="1" as="geometry" />
        </mxCell>
        <mxCell id="Lcnpm1QoUVM13QVadRcU-4" value="CONSTRAINT PROGRAMMING" style="rounded=1;whiteSpace=wrap;html=1;" parent="1" vertex="1">
          <mxGeometry x="240" y="130" width="120" height="60" as="geometry" />
        </mxCell>
        <mxCell id="Lcnpm1QoUVM13QVadRcU-5" value="FLOOR PLAN IS GENERATED!" style="rounded=1;whiteSpace=wrap;html=1;" parent="1" vertex="1">
          <mxGeometry x="530" y="430" width="120" height="60" as="geometry" />
        </mxCell>
        <mxCell id="nFdZa_fs1xXAZgaMB1YP-7" value="" style="edgeStyle=orthogonalEdgeStyle;rounded=0;orthogonalLoop=1;jettySize=auto;html=1;" edge="1" parent="1" source="Lcnpm1QoUVM13QVadRcU-6" target="Lcnpm1QoUVM13QVadRcU-5">
          <mxGeometry relative="1" as="geometry" />
        </mxCell>
        <mxCell id="Lcnpm1QoUVM13QVadRcU-6" value="GENETIC OPTIMIZATION" style="rounded=1;whiteSpace=wrap;html=1;" parent="1" vertex="1">
          <mxGeometry x="430" y="330" width="120" height="60" as="geometry" />
        </mxCell>
        <mxCell id="nFdZa_fs1xXAZgaMB1YP-1" value="" style="edgeStyle=orthogonalEdgeStyle;rounded=0;orthogonalLoop=1;jettySize=auto;html=1;" edge="1" parent="1" source="Lcnpm1QoUVM13QVadRcU-4" target="Lcnpm1QoUVM13QVadRcU-14">
          <mxGeometry relative="1" as="geometry">
            <mxPoint x="470" y="160" as="sourcePoint" />
            <mxPoint x="590" y="150" as="targetPoint" />
          </mxGeometry>
        </mxCell>
        <mxCell id="nFdZa_fs1xXAZgaMB1YP-6" value="" style="edgeStyle=orthogonalEdgeStyle;rounded=0;orthogonalLoop=1;jettySize=auto;html=1;" edge="1" parent="1" source="Lcnpm1QoUVM13QVadRcU-14" target="Lcnpm1QoUVM13QVadRcU-6">
          <mxGeometry relative="1" as="geometry" />
        </mxCell>
        <mxCell id="Lcnpm1QoUVM13QVadRcU-14" value="LAYOUT SELECTION" style="rounded=1;whiteSpace=wrap;html=1;" parent="1" vertex="1">
          <mxGeometry x="330" y="230" width="120" height="60" as="geometry" />
        </mxCell>
        <mxCell id="nFdZa_fs1xXAZgaMB1YP-5" value="" style="edgeStyle=orthogonalEdgeStyle;rounded=0;orthogonalLoop=1;jettySize=auto;html=1;" edge="1" parent="1" source="nFdZa_fs1xXAZgaMB1YP-3" target="Lcnpm1QoUVM13QVadRcU-2">
          <mxGeometry relative="1" as="geometry" />
        </mxCell>
        <mxCell id="nFdZa_fs1xXAZgaMB1YP-3" value="&lt;div&gt;INPUT&lt;/div&gt;&lt;div&gt;1. AREA ENVELOPE&lt;/div&gt;&lt;div&gt;2. NO OF ROOMS&lt;/div&gt;&lt;div&gt;3. AREA&lt;br&gt;&lt;/div&gt;" style="rounded=1;whiteSpace=wrap;html=1;labelBackgroundColor=none;" vertex="1" parent="1">
          <mxGeometry x="50" y="-470" width="730" height="310" as="geometry" />
        </mxCell>
      </root>
    </mxGraphModel>
  </diagram>
</mxfile>
